<svg width="126" height="61" viewBox="0 0 126 61" fill="none" xmlns="http://www.w3.org/2000/svg">
<g clip-path="url(#clip0_1573_1049)">
<path d="M5.35999 52.6468H0.68515V15.6031H6.54349L12.8752 38.5631L19.207 15.6031H25.0653V52.6468H20.3905V25.5446L15.3014 44.599H10.4491L5.35999 25.6037V52.6468Z" fill="url(#paint0_linear_1573_1049)"/>
<path d="M39.0677 23.7693H44.8668C48.5751 23.7693 50.4293 25.5248 50.4293 29.0359V39.865H38.7718V46.7293C38.7718 47.3999 38.8901 47.8536 39.1268 48.0903C39.3635 48.327 39.8369 48.4454 40.547 48.4454H43.2691C43.9792 48.4454 44.4526 48.327 44.6893 48.0903C44.926 47.8536 45.0444 47.3802 45.0444 46.6701V44.3031H50.2518V47.4394C50.2518 50.911 48.4173 52.6468 44.7485 52.6468H39.0677C35.3988 52.6468 33.5644 50.911 33.5644 47.4394V29.0359C33.5644 25.5248 35.3988 23.7693 39.0677 23.7693ZM38.7718 35.9594H45.1627V29.6868C45.1627 29.0162 45.0444 28.5625 44.8077 28.3258C44.6104 28.0891 44.1567 27.9707 43.4466 27.9707H40.547C39.8369 27.9707 39.3635 28.0891 39.1268 28.3258C38.8901 28.5625 38.7718 29.0162 38.7718 29.6868V35.9594Z" fill="url(#paint1_linear_1573_1049)"/>
<path d="M63.2911 52.6468H57.9653V13.0586H63.2911V52.6468Z" fill="url(#paint2_linear_1573_1049)"/>
<path d="M76.7673 52.6468H71.4416V23.7693H76.7673V52.6468Z" fill="url(#paint3_linear_1573_1049)"/>
<path d="M95.6877 23.7693H101.013V55.6056C101.013 59.0772 99.1593 60.813 95.451 60.813H85.5687V56.6115H93.9124C94.6225 56.6115 95.0959 56.4932 95.3326 56.2565C95.5693 56.0198 95.6877 55.5661 95.6877 54.8955V49.9839C95.1748 51.5225 93.9519 52.2917 92.0188 52.2917H89.8885C86.338 52.2917 84.5627 50.5362 84.5627 47.0252V29.0359C84.5627 25.5248 86.338 23.7693 89.8885 23.7693H92.0188C93.9519 23.7693 95.1748 24.5386 95.6877 26.0771V23.7693ZM91.6638 47.972H93.7349C94.445 47.972 94.9381 47.8142 95.2143 47.4986C95.5299 47.183 95.6877 46.6504 95.6877 45.9008V30.1602C95.6877 29.4107 95.5299 28.8781 95.2143 28.5625C94.9381 28.2469 94.445 28.0891 93.7349 28.0891H91.6638C90.9537 28.0891 90.4803 28.2074 90.2436 28.4441C90.0069 28.6414 89.8885 29.0951 89.8885 29.8052V46.2559C89.8885 46.9265 90.0069 47.3802 90.2436 47.6169C90.4803 47.8536 90.9537 47.972 91.6638 47.972Z" fill="url(#paint4_linear_1573_1049)"/>
<path d="M119.97 23.7693H125.296V52.6468H119.97V50.339C119.457 51.8775 118.235 52.6468 116.301 52.6468H114.171C110.621 52.6468 108.845 50.911 108.845 47.4394V29.0359C108.845 25.5248 110.621 23.7693 114.171 23.7693H116.301C118.235 23.7693 119.457 24.5386 119.97 26.0771V23.7693ZM115.946 48.327H118.018C118.728 48.327 119.221 48.1692 119.497 47.8536C119.813 47.538 119.97 47.0054 119.97 46.2559V30.1602C119.97 29.4107 119.813 28.8781 119.497 28.5625C119.221 28.2469 118.728 28.0891 118.018 28.0891H115.946C115.236 28.0891 114.763 28.2074 114.526 28.4441C114.289 28.6414 114.171 29.0951 114.171 29.8052V46.6109C114.171 47.321 114.289 47.7944 114.526 48.0311C114.763 48.2284 115.236 48.327 115.946 48.327Z" fill="url(#paint5_linear_1573_1049)"/>
<path d="M88.1317 6.28029C80.2686 -1.01143 68.0393 -1.00876 60.1794 6.28029C59.8838 6.55439 59.878 7.01849 60.1639 7.30283L61.6835 8.81439C61.956 9.08582 62.3945 9.09161 62.6776 8.8313C69.1537 2.88294 79.1564 2.88161 85.6339 8.8313C85.917 9.09161 86.3555 9.08538 86.628 8.81439L88.1476 7.30283C88.433 7.01849 88.4272 6.55439 88.1317 6.28029ZM74.1555 15.0515C72.5866 15.0515 71.3151 16.3264 71.3151 17.8993C71.3151 19.4723 72.5866 20.7471 74.1555 20.7471C75.7244 20.7471 76.9959 19.4723 76.9959 17.8993C76.9959 16.3264 75.7244 15.0515 74.1555 15.0515ZM83.1503 11.332C78.0349 6.79645 70.2704 6.80135 65.1608 11.332C64.8545 11.6035 64.8448 12.0747 65.1355 12.3621L66.6639 13.8746C66.9302 14.138 67.359 14.1558 67.6426 13.9102C71.3684 10.681 76.9511 10.6882 80.6681 13.9102C80.9517 14.1558 81.3804 14.1385 81.6467 13.8746L83.1752 12.3621C83.4663 12.0747 83.4561 11.603 83.1503 11.332Z" fill="url(#paint6_linear_1573_1049)"/>
</g>
<defs>
<linearGradient id="paint0_linear_1573_1049" x1="62.9906" y1="13.0586" x2="62.9906" y2="60.813" gradientUnits="userSpaceOnUse">
<stop offset="0.322917" stop-color="#226CFF"/>
<stop offset="0.671875" stop-color="#003EC5"/>
</linearGradient>
<linearGradient id="paint1_linear_1573_1049" x1="62.9906" y1="13.0586" x2="62.9906" y2="60.813" gradientUnits="userSpaceOnUse">
<stop offset="0.322917" stop-color="#226CFF"/>
<stop offset="0.671875" stop-color="#003EC5"/>
</linearGradient>
<linearGradient id="paint2_linear_1573_1049" x1="62.9906" y1="13.0586" x2="62.9906" y2="60.813" gradientUnits="userSpaceOnUse">
<stop offset="0.322917" stop-color="#226CFF"/>
<stop offset="0.671875" stop-color="#003EC5"/>
</linearGradient>
<linearGradient id="paint3_linear_1573_1049" x1="62.9906" y1="13.0586" x2="62.9906" y2="60.813" gradientUnits="userSpaceOnUse">
<stop offset="0.322917" stop-color="#226CFF"/>
<stop offset="0.671875" stop-color="#003EC5"/>
</linearGradient>
<linearGradient id="paint4_linear_1573_1049" x1="62.9906" y1="13.0586" x2="62.9906" y2="60.813" gradientUnits="userSpaceOnUse">
<stop offset="0.322917" stop-color="#226CFF"/>
<stop offset="0.671875" stop-color="#003EC5"/>
</linearGradient>
<linearGradient id="paint5_linear_1573_1049" x1="62.9906" y1="13.0586" x2="62.9906" y2="60.813" gradientUnits="userSpaceOnUse">
<stop offset="0.322917" stop-color="#226CFF"/>
<stop offset="0.671875" stop-color="#003EC5"/>
</linearGradient>
<linearGradient id="paint6_linear_1573_1049" x1="74.1556" y1="0.8125" x2="74.1556" y2="20.7471" gradientUnits="userSpaceOnUse">
<stop offset="0.173298" stop-color="#5C04C0"/>
<stop offset="0.558106" stop-color="#9948FA"/>
</linearGradient>
<clipPath id="clip0_1573_1049">
<rect width="124.611" height="60" fill="white" transform="translate(0.68515 0.8125)"/>
</clipPath>
</defs>
</svg>
